<svg enable-background="new 0 0 128 128" viewBox="0 0 128 128" xmlns="http://www.w3.org/2000/svg" xmlns:xlink="http://www.w3.org/1999/xlink"><linearGradient id="a" gradientUnits="userSpaceOnUse" x1="63.9947" x2="63.9947" y1="17.6378" y2="204.0388"><stop offset="0" stop-color="#e0e0e0"/><stop offset=".1121" stop-color="#dcdcdc"/><stop offset=".2242" stop-color="#d0d0d0"/><stop offset=".3361" stop-color="#bcbcbc"/><stop offset=".4192" stop-color="#a8a8a8"/><stop offset=".4666" stop-color="#a4a4a4"/><stop offset=".5119" stop-color="#999"/><stop offset=".5562" stop-color="#868686"/><stop offset=".5572" stop-color="#858585"/></linearGradient><linearGradient id="b" gradientUnits="userSpaceOnUse" x1="92.0408" x2="92.0408" y1="41.9168" y2="96.6172"><stop offset="0" stop-color="#e0e0e0"/><stop offset=".5591" stop-color="#dcdcdc"/><stop offset=".7397" stop-color="#d9d9d9"/></linearGradient><linearGradient id="c" gradientUnits="userSpaceOnUse" x1="35.9592" x2="35.9592" y1="55.0331" y2="128.5656"><stop offset="0" stop-color="#bdbdbd"/><stop offset=".5002" stop-color="#ababab"/><stop offset="1" stop-color="#9e9e9e"/></linearGradient><radialGradient id="d" cx="65.0015" cy="50.7232" gradientTransform="matrix(1 0 0 .8679 0 6.701)" gradientUnits="userSpaceOnUse" r="56.0843"><stop offset=".1976" stop-color="#fafafa"/><stop offset=".5158" stop-color="#f6f6f6"/><stop offset=".8191" stop-color="#ebebeb"/><stop offset="1" stop-color="#e0e0e0"/></radialGradient><path d="m105.1 24.04c-4.2-2.03-78.01-2.03-82.21 0-9.05 4.39-13.55 17.88-13.55 27.83v23.91c0 2.34 17.99 3.74 39.38 4.18-1.32 14.57-2.82 36.33.18 37.65 4.65 2.05 10.84 2.79 15.1 2.79s10.76-.84 15.4-2.89c3-1.32 1.19-22.99-.13-37.55 21.38-.44 39.38-1.84 39.38-4.18v-23.91c0-9.95-4.5-23.44-13.55-27.83z" fill="url(#a)"/><path d="m101.3 41.91-25.7 15.03c-6.3 3.68-10.18 10.55-10.18 17.99v32.18c0 8.4 8.83 13.67 15.94 9.51l26.97-15.77c6.39-3.74 10.34-10.71 10.34-18.26v-30.31c-.01-9.15-9.63-14.89-17.37-10.37z" fill="url(#b)"/><path d="m26.7 41.91 25.7 15.03c6.3 3.68 10.18 10.55 10.18 17.99v32.18c0 8.4-8.83 13.67-15.94 9.51l-26.97-15.77c-6.39-3.74-10.33-10.71-10.33-18.26v-30.31c0-9.15 9.62-14.89 17.36-10.37z" fill="url(#c)"/><path d="m22.89 24.04 26.02-12.45c9.35-5.33 20.82-5.33 30.18 0l26.01 12.45c5.98 3.41 5.98 9.26 0 12.67l-29.38 16.73c-7.27 4.14-16.19 4.14-23.47 0l-29.36-16.73c-5.98-3.41-5.98-9.26 0-12.67z" fill="url(#d)"/><g fill="#616161"><path d="m109.9 50.07c-3.07-1.78-7.23.29-9.88 4.88-2.66 4.61-2.36 9.23.71 11 3.07 1.78 7.23-.27 9.88-4.88 2.67-4.6 2.36-9.22-.71-11z"/><path d="m97.67 71.26c-3.07-1.78-7.22.29-9.88 4.88-2.66 4.61-2.36 9.23.71 11 3.07 1.78 7.23-.28 9.88-4.88 2.66-4.6 2.36-9.23-.71-11z"/><path d="m85.44 92.44c-3.06-1.78-7.22.29-9.88 4.88-2.66 4.61-2.36 9.23.71 11 3.07 1.78 7.23-.29 9.88-4.88s2.35-9.22-.71-11z"/></g><path d="m18.07 50.07c-3.06 1.78-3.37 6.39-.71 11 2.65 4.61 6.82 6.66 9.88 4.88 3.07-1.78 3.37-6.39.71-11-2.65-4.59-6.81-6.65-9.88-4.88z" fill="#353535"/><path d="m42.54 92.44c-3.07 1.78-3.36 6.4-.71 11s6.82 6.66 9.88 4.88c3.07-1.78 3.37-6.39.71-11-2.66-4.59-6.81-6.65-9.88-4.88z" fill="#353535"/><path d="m54.35 30.73c1.64-3.2 7.41-5.08 12.61-4.37s8.31 3.86 6.75 7.01-7.54 5.01-12.89 4.31-8.11-3.74-6.47-6.95z" fill="#f44336"/></svg>