<svg viewBox="0 0 72 72" xmlns="http://www.w3.org/2000/svg"><path d="m58.0936 22.6076-22.4207 5.2366-21.744-5.571 21.744-4.8559z" fill="#d0cfce"/><path d="m58.2211 48.3473-22.1783 5.7572-.3699-27.1003 22.4928-5.1582z" fill="#9b9b9a"/><path d="m13.9856 47.957 21.7171 6.1475-.0298-26.2603-13.0232-3.1456-8.6665-2.4029z" fill="#d0cfce"/><path d="m35.6352 54.0172 21.8346-5.2859v-26.9666l-21.8531 4.7508-21.85-4.7508v26.9666l21.8346 5.2859v-23.6459" style="fill:none;stroke:#000;stroke-linecap:round;stroke-linejoin:round;stroke-miterlimit:10;stroke-width:2.069"/><path d="m13.7667 21.7647 22.0415-5.3102 21.6616 5.3102" style="fill:none;stroke:#000;stroke-linecap:round;stroke-linejoin:round;stroke-miterlimit:10;stroke-width:2.069"/><circle cx="21.2735" cy="32.9339" r="3"/><circle cx="27.2446" cy="44.3761" r="3"/><circle cx="41.767" cy="45.2211" r="3"/><circle cx="46.8274" cy="38.0668" r="3"/><circle cx="51.8878" cy="30.9124" r="3"/><ellipse cx="35.8312" cy="21.1219" rx="4" ry="1.6191"/></svg>